<?xml version="1.0" encoding="iso-8859-1"?>
<!-- Generator: Adobe Illustrator 19.0.0, SVG Export Plug-In . SVG Version: 6.00 Build 0)  -->
<svg xmlns="http://www.w3.org/2000/svg" xmlns:xlink="http://www.w3.org/1999/xlink" version="1.1" id="Layer_1" x="0px" y="0px" viewBox="0 0 512 512" style="enable-background:new 0 0 512 512;" xml:space="preserve" width="512" height="512">
<g>
	<g>
		<path style="fill:#FDD0D0;" d="M307.118,186c0-16.57,13.43-30,30-30s30,13.43,30,30v20c0-16.57,13.43-30,30-30s30,13.43,30,30    v100.56c0,79.33-40,78.35-40,149.44v26c0,11.05-8.95,20-20,20h-140c-11.05,0-20-8.95-20-20v-26c0-52.72-10.34-31.32-116.15-175.47    c-12.07-16.45-5.44-39.89,13.49-47.47c11.62-4.64,24.88-1.9,33.7,6.98l48.96,49.29V40c0-16.57,13.43-30,30-30s30,13.43,30,30v126    c0-16.57,13.43-30,30-30s30,13.43,30,30V186z"/>
	</g>
	<g>
		<path d="M387.118,306c5.52,0,10-4.48,10-10s-4.48-10-10-10s-10,4.48-10,10S381.598,306,387.118,306z"/>
		<path d="M168.399,394.067c27.097,31.491,28.719,33.376,28.719,61.933v26c0,16.542,13.458,30,30,30h140c16.542,0,30-13.458,30-30    v-26c0-32.044,8.331-47.481,17.978-65.356c10.322-19.126,22.022-40.805,22.022-84.083V206c0-22.056-17.944-40-40-40    c-8.231,0-15.888,2.501-22.255,6.78c-5.472-15.578-20.321-26.78-37.745-26.78c-8.231,0-15.888,2.501-22.255,6.78    c-5.472-15.578-20.321-26.78-37.745-26.78c-7.283,0-14.112,1.966-20,5.381V40c0-22.056-17.944-40-40-40s-40,17.944-40,40v225.073    l-31.865-32.08c-11.66-11.74-29.129-15.359-44.513-9.216c-24.98,10.002-33.79,40.925-17.834,62.67    C124.185,342.682,150.792,373.605,168.399,394.067z M108.166,242.347c7.91-3.159,16.898-1.299,22.897,4.74l48.96,49.29    c2.854,2.874,7.162,3.742,10.906,2.198s6.188-5.194,6.188-9.245V40c0-11.028,8.972-20,20-20c11.028,0,20,8.972,20,20v216    c0,5.523,4.477,10,10,10s10-4.477,10-10v-90c0-11.028,8.972-20,20-20s20,8.972,20,20c0,11.27,0,80.349,0,90    c0,5.523,4.477,10,10,10s10-4.477,10-10v-70c0-11.028,8.972-20,20-20s20,8.972,20,20c0,18.912,0,57.544,0,70    c0,5.523,4.477,10,10,10s10-4.477,10-10v-50c0-11.028,8.972-20,20-20c11.028,0,20,8.972,20,20v100.56    c0,38.226-9.531,55.887-19.623,74.585c-10.018,18.563-20.377,37.758-20.377,74.855v26c0,5.514-4.486,10-10,10h-140    c-5.514,0-10-4.486-10-10v-26c0-35.978-5.781-42.695-33.558-74.978c-17.406-20.229-43.71-50.798-84.529-106.408    C90.797,263.395,95.353,247.478,108.166,242.347z"/>
		<path d="M347.087,445.951c5.491,0.549,10.394-3.463,10.941-8.96c3.033-30.458,13.035-48.991,21.855-65.333    c5.611-10.375,10.911-20.173,14.047-33.472c1.268-5.375-2.063-10.761-7.438-12.028c-5.379-1.269-10.761,2.063-12.028,7.438    c-2.526,10.712-6.783,18.583-12.177,28.556c-9.236,17.113-20.731,38.411-24.161,72.859    C337.58,440.505,341.592,445.404,347.087,445.951z"/>
	</g>
</g>















</svg>
