<svg xmlns="http://www.w3.org/2000/svg" xmlns:xlink="http://www.w3.org/1999/xlink" version="1.1" x="0px" y="0px" viewBox="0 0 1000 1000" enable-background="new 0 0 1000 1000" xml:space="preserve" m_init="2270459202101121228">
<metadata> Svg Vector Icons : http://www.onlinewebfonts.com/icon </metadata>
<g><path d="M499.5,71.3c-390.9,0-523.4,116.6-482.4,472.9c34.7,302.6,163.9,384.6,482.4,384.6c321.6,0,447.7-82,482.4-384.6C1026,187.9,893.6,71.3,499.5,71.3L499.5,71.3z M915.7,541C884.1,818.4,777,890.9,499.5,890.9c-274.3,0-384.6-72.5-416.2-349.9c-31.5-324.7,78.8-428.7,416.2-428.7C840,112.3,950.4,216.3,915.7,541L915.7,541z"/><path d="M499.5,156.4c-233.3,0-397.3,69.4-356.3,384.6c31.5,252.2,173.4,302.6,356.3,302.6c182.9,0,324.7-50.4,356.3-302.6C896.8,225.7,732.8,156.4,499.5,156.4L499.5,156.4z M471.1,808.9L471.1,808.9c-126.1-3.1-258.5-37.8-286.9-271.1c-22.1-201.8,44.1-283.7,141.9-315.2C323,273,323,383.4,323,446.4c0,59.9,18.9,97.7,31.5,122.9c41,78.8,94.6,182.8,126.1,233.3C483.7,805.8,477.4,808.9,471.1,808.9L471.1,808.9z M509,515.8L509,515.8c0,3.2-3.2,6.3-9.5,6.3c-6.3,0-6.3-3.1-9.5-6.3l0,0l0,0l-18.9-59.9l0,0l-97.7-249c41-6.3,85.1-9.5,129.3-9.5c44.1,0,88.3,3.2,129.3,9.5L531,468.5L509,515.8C509,512.6,509,515.8,509,515.8L509,515.8z M817.9,534.7C792.7,768,660.3,802.6,531,805.8l0,0c-9.5,0-12.6-3.2-9.5-9.5l0,0c31.5-50.4,85.1-151.3,126.1-233.3c12.6-25.2,31.5-63.1,31.5-122.9c0-63-3.2-173.4-3.2-223.8C770.6,251,840,332.9,817.9,534.7L817.9,534.7z"/></g>
</svg>